<svg width="60" height="60" viewBox="0 0 60 60" fill="none" xmlns="http://www.w3.org/2000/svg">
<g id="search_spot">
<path id="Icon" fill-rule="evenodd" clip-rule="evenodd" d="M37.5586 39.6799C34.6973 42.0651 31.0162 43.5 27 43.5C17.8873 43.5 10.5 36.1127 10.5 27C10.5 17.8873 17.8873 10.5 27 10.5C36.1127 10.5 43.5 17.8873 43.5 27C43.5 31.0162 42.0651 34.6973 39.6799 37.5586L48.3107 46.1893C48.8964 46.7751 48.8964 47.7249 48.3107 48.3107C47.7249 48.8964 46.7751 48.8964 46.1893 48.3107L37.5586 39.6799ZM36.0933 36.9782C33.694 39.1659 30.5028 40.5 27 40.5C19.5442 40.5 13.5 34.4558 13.5 27C13.5 19.5442 19.5442 13.5 27 13.5C34.4558 13.5 40.5 19.5442 40.5 27C40.5 30.5028 39.1659 33.694 36.9782 36.0933C36.7816 36.1661 36.5973 36.2814 36.4393 36.4393C36.2814 36.5973 36.1661 36.7816 36.0933 36.9782Z" fill="#8A8A8A"/>
</g>
</svg>
