<svg width="22" height="24" viewBox="0 0 22 24" fill="none" xmlns="http://www.w3.org/2000/svg">
<path d="M18.6136 4.54501C18.5961 4.42508 18.4913 4.36036 18.402 4.35274C18.3146 4.34513 16.6006 4.32038 16.6006 4.32038C16.6006 4.32038 15.168 2.95547 15.0263 2.8165C14.8846 2.67754 14.609 2.71942 14.5003 2.74987C14.4983 2.74987 14.2305 2.83173 13.7801 2.96879C13.7044 2.72894 13.5938 2.43387 13.4346 2.13881C12.9241 1.18318 12.1767 0.678711 11.2741 0.676807C11.2722 0.676807 11.2722 0.676807 11.2702 0.676807C11.2081 0.676807 11.146 0.682519 11.0819 0.68823C11.0548 0.657772 11.0295 0.625409 11.0004 0.596854C10.6064 0.183764 10.1017 -0.0161181 9.49798 0.00101468C8.33135 0.0333766 7.17056 0.859558 6.2291 2.32727C5.56524 3.35904 5.06248 4.65733 4.91884 5.66055C3.57945 6.06792 2.64188 6.35157 2.62247 6.35728C1.94696 6.56478 1.92561 6.58572 1.83631 7.21011C1.76837 7.68221 0 21.0953 0 21.0953L14.8245 23.61L21.2496 22.0433C21.2516 22.0452 18.6291 4.66494 18.6136 4.54501ZM13.0367 3.19533C12.695 3.29813 12.3068 3.41615 11.8856 3.5456C11.8778 2.96689 11.806 2.15975 11.5303 1.46492C12.4174 1.62673 12.8523 2.60901 13.0367 3.19533ZM11.1111 3.77975C10.3346 4.0158 9.48633 4.27279 8.63612 4.53169C8.87487 3.63317 9.3291 2.73845 9.8862 2.15403C10.0939 1.93702 10.3831 1.69335 10.7267 1.55439C11.0489 2.21305 11.1188 3.14774 11.1111 3.77975ZM9.52321 0.760568C9.79691 0.754857 10.0279 0.813869 10.224 0.941414C9.9095 1.10132 9.60474 1.33166 9.31745 1.63244C8.57594 2.41103 8.00913 3.62174 7.78201 4.78868C7.07544 5.00379 6.3844 5.21319 5.74964 5.40546C6.15146 3.57035 7.72184 0.811966 9.52321 0.760568Z" fill="url(#paint0_linear_264_8907)"/>
<path d="M11.2665 7.59277L10.5211 10.3302C10.5211 10.3302 9.68834 9.959 8.70224 10.0199C7.2561 10.1094 7.24057 11.0041 7.25415 11.2287C7.33374 12.4528 10.6181 12.7212 10.8026 15.5881C10.9481 17.8439 9.58158 19.3877 7.61521 19.5096C5.25478 19.6562 3.95422 18.2893 3.95422 18.2893L4.45504 16.201C4.45504 16.201 5.76336 17.17 6.81158 17.1034C7.49486 17.0615 7.73944 16.5151 7.71615 16.1287C7.61327 14.5315 4.93838 14.6248 4.7695 12.0016C4.6278 9.79338 6.10695 7.55469 9.36999 7.35291C10.622 7.27867 11.2665 7.59277 11.2665 7.59277Z" fill="white"/>
<path d="M18.4024 4.35252C18.315 4.3449 16.601 4.32016 16.601 4.32016C16.601 4.32016 15.1684 2.95524 15.0267 2.81628C14.9743 2.76488 14.9025 2.73823 14.8268 2.72681V23.6098L21.25 22.0431C21.25 22.0431 18.6295 4.66281 18.612 4.54479C18.5965 4.42676 18.4897 4.36013 18.4024 4.35252Z" fill="url(#paint1_linear_264_8907)"/>
<defs>
<linearGradient id="paint0_linear_264_8907" x1="33.9448" y1="38.3624" x2="-21.6843" y2="-5.04109" gradientUnits="userSpaceOnUse">
<stop offset="0.243796" stop-color="#005F5E"/>
<stop offset="0.342765" stop-color="#00CDCB"/>
<stop offset="0.64321" stop-color="#005F5E"/>
</linearGradient>
<linearGradient id="paint1_linear_264_8907" x1="10.1602" y1="5.97881" x2="23.4497" y2="28.3618" gradientUnits="userSpaceOnUse">
<stop offset="0.06" stop-color="#005F5E"/>
<stop offset="0.84" stop-color="#00A19F"/>
</linearGradient>
</defs>
</svg>
